<?xml version="1.0" encoding="UTF-8"?>
<svg id="Layer_1" data-name="Layer 1" xmlns="http://www.w3.org/2000/svg" viewBox="0 0 100 92">
  <defs>
    <style>
      .cls-1 {
        stroke-width: 0px;
      }
    </style>
  </defs>
  <path class="cls-1" d="M100,.17v43.91c0,15.51-4,27.34-12,35.51-8,8.17-20.67,12.25-38,12.25-9.95,0-19.14-1.45-27.55-4.35-8.42-2.9-15.9-6.67-22.45-11.32,1.57-5.14,2.86-10.07,3.86-14.8.99-4.73,1.74-9.91,2.24-15.55,8.54,6.88,16.42,11.65,23.63,14.3,7.21,2.65,14.1,3.98,20.65,3.98s11.65-1.53,14.55-4.6c2.9-3.07,4.39-8.33,4.48-15.8v-9.45c0-13.43-.37-24.79-1.12-34.08h31.72Z"/>
</svg>