<?xml version="1.0" encoding="UTF-8"?>
<svg id="Layer_2" data-name="Layer 2" xmlns="http://www.w3.org/2000/svg" viewBox="0 0 100 92">
  <defs>
    <style>
      .cls-1 {
        fill: #2c2c33;
      }

      .cls-1, .cls-2 {
        stroke-width: 0px;
      }

      .cls-2 {
        fill: #f2270c;
      }
    </style>
  </defs>
  <rect class="cls-1" y="0" width="100" height="92"/>
  <path class="cls-2" d="M49.77,91.5c-8.5,0-15.98-.8-22.43-2.4-6.45-1.6-11.13-3.15-14.02-4.65l3-19.95v-4.5c1.8,2.1,4.25,4.33,7.35,6.67,3.1,2.35,6.67,4.33,10.73,5.93,4.05,1.6,8.27,2.4,12.67,2.4s7.73-1.25,9.98-3.75c2.25-2.5,3.38-6.75,3.38-12.75V9c0-3.2-.35-5.48-1.05-6.83-.7-1.35-1.4-2.07-2.1-2.17h29.4c-.7,0-1.4.7-2.1,2.1-.7,1.4-1.05,3.75-1.05,7.05v49.35c0,8.8-1.38,15.58-4.13,20.32-2.75,4.75-6.65,8.05-11.7,9.9-5.05,1.85-11.03,2.77-17.93,2.77Z"/>
</svg>