<?xml version="1.0" encoding="utf-8"?>
<!-- Generator: Adobe Illustrator 28.1.0, SVG Export Plug-In . SVG Version: 6.00 Build 0)  -->
<svg version="1.1"
	 id="Layer_1" text-rendering="geometricPrecision" image-rendering="optimizeQuality" shape-rendering="geometricPrecision"
	 xmlns="http://www.w3.org/2000/svg" xmlns:xlink="http://www.w3.org/1999/xlink" x="0px" y="0px" viewBox="0 0 449.5 515.4"
	 style="enable-background:new 0 0 449.5 515.4;" xml:space="preserve">
<style type="text/css">
	.st0{fill:#FFFFFF;}
</style>
<path class="st0" d="M382.3,103.3c-27.8-18.1-47.8-47.1-54-80.8c-1.4-7.3-2.1-14.8-2.1-22.5h-88.6l-0.1,355.1
	c-1.5,39.8-34.2,71.7-74.3,71.7c-12.5,0-24.2-3.1-34.6-8.6c-23.7-12.5-39.9-37.3-39.9-65.9c0-41.1,33.4-74.5,74.5-74.5
	c7.7,0,15,1.3,22,3.4v-90.4c-7.2-1-14.5-1.6-22-1.6C73.2,189.2,0,262.4,0,352.3c0,55.2,27.6,104,69.6,133.5
	c26.5,18.6,58.7,29.6,93.5,29.6c89.9,0,163.1-73.2,163.1-163.1V172.2c34.8,24.9,77.3,39.6,123.3,39.6v-88.6
	C424.7,123.3,401.6,115.9,382.3,103.3z"/>
</svg>
